<svg xmlns="http://www.w3.org/2000/svg" width="192" height="192" viewBox="0 0 192 192">
  <rect width="192" height="192" rx="40" fill="#0f172a"/>
  <rect x="16" y="16" width="160" height="160" rx="32" fill="#22c55e"/>
  <path d="M96 36C62.86 36 36 62.86 36 96s26.86 60 60 60 60-26.86 60-60S129.14 36 96 36zm8.46 96.54V138h-16v-5.34c-9.3-1.56-18.06-5.82-21.24-13.44l9.72-4.02c2.34 4.92 7.44 8.52 15.12 8.52 9.12 0 12.24-4.56 12.24-8.22 0-5.82-4.02-8.34-14.28-11.34-12-3.48-20.04-8.1-20.04-18.48 0-9.54 7.38-15.78 17.28-17.52V62h16v5.34c8.22 1.68 13.62 6.42 16.08 12.9l-9.6 4.02c-1.74-4.2-5.64-7.08-11.28-7.08-6.06 0-10.5 3.06-10.5 7.68 0 4.38 3.24 6.42 12.84 9.24 12.6 3.72 21.48 8.22 21.48 20.34 0 10.32-7.2 17.1-18.42 18.84z" fill="white"/>
</svg>
