<svg xmlns="http://www.w3.org/2000/svg" width="32" height="32" viewBox="0 0 32 32">
  <rect width="32" height="32" rx="8" fill="#22c55e"/>
  <path d="M16 6C10.48 6 6 10.48 6 16s4.48 10 10 10 10-4.48 10-10S21.52 6 16 6zm1.41 16.09V23h-2.67v-.89c-1.55-.26-3.01-.97-3.54-2.24l1.62-.67c.39.82 1.24 1.42 2.52 1.42 1.52 0 2.04-.76 2.04-1.37 0-.97-.67-1.39-2.38-1.89-2-.58-3.34-1.35-3.34-3.08 0-1.59 1.23-2.63 2.88-2.92V10h2.67v.89c1.37.28 2.27 1.07 2.68 2.15l-1.6.67c-.29-.7-.94-1.18-1.88-1.18-1.01 0-1.75.51-1.75 1.28 0 .73.54 1.07 2.14 1.54 2.1.62 3.58 1.37 3.58 3.39 0 1.72-1.2 2.85-3.07 3.14z" fill="white"/>
</svg>
